<?xml version="1.0" encoding="utf-8"?>
<!-- Generator: Adobe Illustrator 21.1.0, SVG Export Plug-In . SVG Version: 6.00 Build 0)  -->
<svg version="1.1" id="Layer_1" xmlns="http://www.w3.org/2000/svg" xmlns:xlink="http://www.w3.org/1999/xlink" x="0px" y="0px"
	 viewBox="0 0 60 60" style="enable-background:new 0 0 60 60;" xml:space="preserve">
<style type="text/css">
	.st0{fill:#CCCCCC;}
	.st1{fill:#EAEAEA;}
	.st2{fill:none;stroke:#344055;stroke-linecap:round;stroke-linejoin:round;stroke-miterlimit:10;}
	.st3{fill:#266DD3;}
</style>
<g>
	<polygon class="st0" points="22.2,0 22,0 8.9,13.1 8.9,13.3 22.2,13.3 	"/>
	<polygon class="st1" points="22.2,0 22.2,13.3 8.9,13.3 8.9,55.3 49.7,55.3 49.7,0 	"/>
</g>
<line class="st2" x1="44.5" y1="13.2" x2="27" y2="13.2"/>
<line class="st2" x1="44.5" y1="19.2" x2="14.1" y2="19.2"/>
<line class="st2" x1="36.3" y1="25.2" x2="14.1" y2="25.2"/>
<line class="st2" x1="36.1" y1="31.2" x2="14.1" y2="31.2"/>
<line class="st2" x1="33" y1="37.2" x2="14.1" y2="37.2"/>
<line class="st2" x1="36.3" y1="43.2" x2="14.1" y2="43.2"/>
<path class="st3" d="M49.8,23.8l-6.4,0c-0.9,0-1.5,0.3-1.5,1.4l0,11.5l9.5,0l0-11.5C51.3,24.1,50.6,23.8,49.8,23.8z"/>
<path class="st3" d="M39.3,36.6c-1.4,0-1.3,1.1-0.9,1.5l7.5,8.6l0,0c0.2,0.2,0.5,0.3,0.8,0.3c0.3,0,0.6-0.1,0.8-0.3l0,0l7.5-8.6
	c0.4-0.4,0.5-1.5-0.9-1.5"/>
</svg>
