<?xml version="1.0" encoding="utf-8"?>
<!-- Generator: Adobe Illustrator 21.1.0, SVG Export Plug-In . SVG Version: 6.00 Build 0)  -->
<svg version="1.1" id="Layer_1" xmlns="http://www.w3.org/2000/svg" xmlns:xlink="http://www.w3.org/1999/xlink" x="0px" y="0px"
	 viewBox="0 0 60 60" style="enable-background:new 0 0 60 60;" xml:space="preserve">
<style type="text/css">
	.st0{fill:none;stroke:#344055;stroke-linecap:round;stroke-linejoin:round;stroke-miterlimit:10;}
	.st1{fill:#344055;}
	.st2{fill:#266DD3;}
	.st3{fill:#EAEAEA;}
	.st4{fill:#CCCCCC;}
</style>
<line class="st0" x1="48.2" y1="57.1" x2="10.4" y2="57.1"/>
<g>
	<path class="st1" d="M40.4,5.7L40,5.5c-0.3-0.2-0.4-0.6-0.2-0.9l2.5-4.3c0.2-0.3,0.6-0.4,0.9-0.2l0.4,0.2c0.3,0.2,0.4,0.6,0.2,0.9
		l-2.5,4.3C41.1,5.8,40.7,5.9,40.4,5.7z"/>
	<path class="st2" d="M34.2,7.5c1.2-2.1,5.3-5.3,7.3-4.1s1.3,6.4,0.1,8.4l-15,25.9l-7.4-4.3L34.2,7.5z"/>
	<path class="st0" d="M34.5,7l7.4,4.3c0.7,0.4,1,1.4,0.6,2.1l-9.7,16.7"/>
	<path class="st1" d="M10.4,57.5l-0.3-0.1C10,57.2,9.9,57,10,56.8l1.6-2.7c0.1-0.2,0.4-0.3,0.6-0.2l0.3,0.1c0.2,0.1,0.3,0.4,0.2,0.6
		L11,57.3C10.9,57.5,10.6,57.6,10.4,57.5z"/>
	<path class="st3" d="M25.1,40.4c-1.3,2.3-11.7,16.5-13.8,15.3c-2.1-1.2,5-17.3,6.4-19.6l1.9-3.3l7.4,4.3L25.1,40.4z"/>
	<rect x="19.2" y="33.4" transform="matrix(0.866 0.5 -0.5 0.866 20.4322 -7.1094)" class="st4" width="8.6" height="2.3"/>
</g>
</svg>
