<?xml version="1.0" encoding="utf-8"?>
<!-- Generator: Adobe Illustrator 21.1.0, SVG Export Plug-In . SVG Version: 6.00 Build 0)  -->
<svg version="1.1" id="Layer_1" xmlns="http://www.w3.org/2000/svg" xmlns:xlink="http://www.w3.org/1999/xlink" x="0px" y="0px"
	 viewBox="0 0 60 60" style="enable-background:new 0 0 60 60;" xml:space="preserve">
<style type="text/css">
	.st0{fill:#CCCCCC;}
	.st1{fill:#EAEAEA;}
	.st2{fill:#266DD3;}
	.st3{fill:#FFFFFF;}
</style>
<g>
	<polygon class="st0" points="22.9,0 22.6,0 9.6,13.1 9.6,13.3 22.9,13.3 	"/>
	<polygon class="st1" points="22.9,0 22.9,13.3 9.6,13.3 9.6,55.2 50.4,55.2 50.4,0 	"/>
</g>
<circle class="st2" cx="29.6" cy="30.7" r="13.3"/>
<path class="st3" d="M30.5,38.3l-1.8,0c-0.7,0-1.2-0.5-1.2-1.2l0-12.7c0-0.7,0.5-1.2,1.2-1.2l1.8,0c0.7,0,1.2,0.5,1.2,1.2l0,12.7
	C31.7,37.8,31.2,38.3,30.5,38.3z"/>
<path class="st3" d="M22,31.7l0-1.8c0-0.7,0.5-1.2,1.2-1.2l12.7,0c0.7,0,1.2,0.5,1.2,1.2l0,1.8c0,0.7-0.5,1.2-1.2,1.2l-12.7,0
	C22.6,32.9,22,32.3,22,31.7z"/>
</svg>
