<?xml version="1.0" encoding="utf-8"?>
<!-- Generator: Adobe Illustrator 21.1.0, SVG Export Plug-In . SVG Version: 6.00 Build 0)  -->
<svg version="1.1" id="Layer_1" xmlns="http://www.w3.org/2000/svg" xmlns:xlink="http://www.w3.org/1999/xlink" x="0px" y="0px"
	 viewBox="0 0 60 60" style="enable-background:new 0 0 60 60;" xml:space="preserve">
<style type="text/css">
	.st0{fill:#EAEAEA;}
	.st1{fill:#344055;}
	.st2{fill:#266DD3;}
	.st3{fill:#CCCCCC;}
</style>
<g>
	<path class="st0" d="M45.9,29.6c0-1.5-1.2-2.7-2.7-2.7H43c-1.4,0-2.6,1.1-2.7,2.5V28c0-1.5-1.2-2.7-2.7-2.7h-0.2
		c-1.4,0-2.6,1.1-2.7,2.5v-1.5c0-1.5-1.2-2.7-2.7-2.7h-0.2c-1.5,0-2.7,1.2-2.7,2.7V15.6c0-1.5-1.2-2.7-2.7-2.7h-0.2
		c-1.5,0-2.7,1.2-2.7,2.7v26L18,36.1c-1.1-1.1-3-1.1-4.1,0l-0.2,0.2c-1.1,1.1-1.1,3,0,4.1l13.4,13.4h18.8v-4.3V29.6z"/>
	<path class="st1" d="M43.1,26.4c-0.9,0-1.8,0.4-2.3,1c-0.3-1.5-1.6-2.6-3.2-2.6c-0.9,0-1.8,0.4-2.3,1c-0.3-1.5-1.6-2.6-3.2-2.6
		c-0.9,0-1.7,0.4-2.3,0.9v-8.4c0-1.8-1.5-3.3-3.3-3.3s-3.3,1.5-3.3,3.3l0,24.7l-4.6-4.6c-1.4-1.4-3.6-1.4-5,0c-1.4,1.4-1.4,3.6,0,5
		L26.6,54l0.7-0.7L14.1,40.1c-1-1-1-2.6,0-3.6c1-1,2.6-1,3.6,0l6.3,6.3l0-27.1c0-1.3,1-2.3,2.3-2.3c1.3,0,2.3,1,2.3,2.3v9v3.7v3.2
		c0,0.3,0.2,0.5,0.5,0.5s0.5-0.2,0.5-0.5v-3.2v-2c0-1.3,1-2.3,2.3-2.3c1.3,0,2.3,1,2.3,2.3V28l0,0v3.7c0,0.3,0.2,0.5,0.5,0.5
		s0.5-0.2,0.5-0.5V28c0.1-1.2,1.1-2.2,2.3-2.2c1.3,0,2.3,1,2.3,2.3v1.5v2.1c0,0.3,0.2,0.5,0.5,0.5s0.5-0.2,0.5-0.5v-2
		c0.1-1.2,1.1-2.2,2.3-2.2c1.3,0,2.3,1,2.3,2.3V54h1V29.7C46.4,27.9,44.9,26.4,43.1,26.4z"/>
	<path class="st2" d="M20,15.6C20,12,22.9,9,26.5,9C30.1,9,33,12,33,15.6c0,1.8-0.7,3.4-1.9,4.6v1.6c0.2,0,0.4,0,0.7,0h0.2
		c0.5,0,1,0.1,1.5,0.3c1.5-1.7,2.5-3.9,2.5-6.4c0-5.3-4.3-9.6-9.6-9.6s-9.6,4.3-9.6,9.6c0,3.5,1.9,6.5,4.6,8.2v-3.9
		C20.6,18.7,20,17.2,20,15.6z"/>
	<path class="st2" d="M14,15.6C14,8.6,19.6,3,26.5,3C33.4,3,39,8.6,39,15.6c0,3-1.1,5.8-2.8,7.9c0.4-0.1,0.8-0.2,1.2-0.2h0.2
		c0.7,0,1.4,0.2,2,0.5c1.5-2.4,2.4-5.2,2.4-8.2C42,7,35.1,0,26.5,0C17.9,0,11,7,11,15.6c0,6.8,4.5,12.7,10.6,14.7v-3.2
		C17.1,25.2,14,20.7,14,15.6z"/>
	<rect x="23.2" y="52.5" class="st3" width="24.7" height="7.5"/>
</g>
</svg>
