<?xml version="1.0" encoding="utf-8"?>
<!-- Generator: Adobe Illustrator 21.1.0, SVG Export Plug-In . SVG Version: 6.00 Build 0)  -->
<svg version="1.1" id="Layer_1" xmlns="http://www.w3.org/2000/svg" xmlns:xlink="http://www.w3.org/1999/xlink" x="0px" y="0px"
	 viewBox="0 0 33.2 32" style="enable-background:new 0 0 33.2 32;" xml:space="preserve">
<style type="text/css">
	.st0{fill:#266DD3;}
	.st1{fill:#FFFFFF;}
</style>
<g>
	<path class="st0" d="M13.9,30.4L1.6,18.1c-1.1-1.1-1.1-3,0-4.1L13.9,1.6c1.1-1.1,3-1.1,4.1,0l12.3,12.3c1.1,1.1,1.1,3,0,4.1
		L18.1,30.4C16.9,31.5,15.1,31.5,13.9,30.4z"/>
	<path class="st1" d="M16,32c-0.9,0-1.9-0.4-2.6-1.1v0L1.1,18.6C0.4,17.9,0,17,0,16c0-1,0.4-1.9,1.1-2.6L13.4,1.1
		C14.1,0.4,15,0,16,0s1.9,0.4,2.6,1.1l12.3,12.3C31.6,14.1,32,15,32,16c0,1-0.4,1.9-1.1,2.6L18.6,30.9C17.9,31.6,16.9,32,16,32z
		 M14.4,29.9c0.9,0.9,2.3,0.9,3.1,0l12.3-12.3c0.4-0.4,0.6-1,0.6-1.6c0-0.6-0.2-1.1-0.6-1.6L17.6,2.1c-0.9-0.9-2.3-0.9-3.1,0
		L2.1,14.4c-0.4,0.4-0.6,1-0.6,1.6c0,0.6,0.2,1.1,0.6,1.6L14.4,29.9L14.4,29.9z"/>
	<polygon class="st1" points="6.1,23.2 4.8,21 16.5,9.3 20.8,13.7 29.3,5.2 31.1,7 20.8,17.3 16.5,12.9 	"/>
	<polygon class="st1" points="27.4,4.3 33.2,3.1 32,8.9 	"/>
</g>
</svg>
